<svg width="24" height="24" viewBox="0 0 24 24" fill="none" xmlns="http://www.w3.org/2000/svg">
<path d="M19.4227 2.43054H4.53554C3.95068 2.43054 3.47217 2.86153 3.47217 3.39421V22.0575C3.47217 22.5902 3.81776 22.7258 4.24843 22.3529L11.5484 16.0479C11.7186 15.9026 12.0004 15.9026 12.1705 16.043L19.7045 22.3674C20.1351 22.7306 20.4861 22.5902 20.4861 22.0575V3.39421C20.4861 2.86153 20.0129 2.43054 19.4227 2.43054ZM18.891 19.7137L13.2498 14.9777C12.8564 14.6484 12.3619 14.4837 11.8621 14.4837C11.3517 14.4837 10.8466 14.6532 10.4532 14.9922L5.06722 19.6459V3.88332H18.891V19.7137Z" fill="#333333"/>
<path fill-rule="evenodd" clip-rule="evenodd" d="M3.125 3.38412C3.125 2.63001 3.78962 2.08337 4.52178 2.08337H19.4366C20.1752 2.08337 20.8333 2.63104 20.8333 3.38412V22.0675C20.8333 22.3859 20.7261 22.7395 20.3931 22.8718C20.0793 22.9965 19.753 22.8434 19.5072 22.6363C19.5071 22.6363 19.5073 22.6364 19.5072 22.6363L11.9618 16.3072C11.9615 16.307 11.9613 16.3068 11.9611 16.3066C11.9126 16.2674 11.8089 16.2682 11.7616 16.3081C11.7614 16.3082 11.7613 16.3083 11.7611 16.3085L4.44928 22.6188C4.20693 22.8285 3.88204 22.9908 3.56613 22.8695C3.22892 22.7401 3.125 22.3819 3.125 22.0675V3.38412ZM4.52178 2.75544C4.08206 2.75544 3.78788 3.0717 3.78788 3.38412V22.0675C3.78788 22.1554 3.80082 22.2081 3.81138 22.235C3.81555 22.2339 3.82038 22.2325 3.82591 22.2306C3.86751 22.2166 3.93337 22.1816 4.019 22.1076L11.3329 15.7955L11.3343 15.7943C11.6278 15.5438 12.0876 15.5446 12.3801 15.7859L12.3822 15.7876L19.9307 22.1193C20.0154 22.1906 20.0806 22.2238 20.122 22.2368C20.1308 22.2396 20.1379 22.2413 20.1434 22.2424C20.1548 22.2176 20.1705 22.1633 20.1705 22.0675V3.38412C20.1705 3.07068 19.8805 2.75544 19.4366 2.75544H4.52178ZM20.1593 22.2438C20.1593 22.2438 20.159 22.2438 20.1584 22.2439L20.1593 22.2438ZM3.79008 22.2382C3.79009 22.2382 3.79039 22.2382 3.79098 22.2383L3.79008 22.2382ZM4.72301 3.53771H19.2353V20.4353L13.0413 15.2392C13.0413 15.2392 13.0414 15.2393 13.0413 15.2392C12.7111 14.9632 12.2917 14.8216 11.862 14.8216C11.4214 14.8216 10.9935 14.9678 10.6649 15.2507L4.72301 20.3808V3.53771ZM5.38589 4.20977V18.9258L10.2359 14.7384C10.6956 14.3426 11.2798 14.1495 11.862 14.1495C12.4335 14.1495 13.0051 14.3377 13.4632 14.7208L13.4635 14.7211L18.5724 19.007V4.20977H5.38589Z" fill="#333333"/>
</svg>
