<svg width="24" height="24" viewBox="0 0 24 24" fill="none" xmlns="http://www.w3.org/2000/svg">
<path fill-rule="evenodd" clip-rule="evenodd" d="M21.2948 21.1593L20.2165 17.1378C20.1546 16.9124 20.1856 16.6694 20.2916 16.4573C21.2329 14.5702 21.5467 12.3164 20.9678 9.96541C20.1811 6.78356 17.6975 4.22925 14.5245 3.38518C13.6584 3.1598 12.8055 3.04932 11.9791 3.04932C6.04846 3.04932 1.41711 8.61312 3.01687 14.8045C3.7593 17.6681 6.8174 20.6334 9.69432 21.3317C10.4721 21.5217 11.2366 21.6101 11.9791 21.6101C13.5744 21.6101 15.0681 21.1991 16.3806 20.492C16.5264 20.4125 16.69 20.3683 16.849 20.3683C16.9286 20.3683 17.0081 20.3771 17.0877 20.3992L21.0031 21.4466C21.0252 21.451 21.0473 21.4554 21.065 21.4554C21.2152 21.4554 21.3346 21.314 21.2948 21.1593ZM18.9791 17.4693L19.589 19.7452L17.4191 19.1662C17.2335 19.1176 17.0435 19.0911 16.849 19.0911C16.4778 19.0911 16.1022 19.1883 15.7663 19.3695C14.5864 20.0059 13.3137 20.3285 11.9791 20.3285C11.3206 20.3285 10.6533 20.2445 9.99483 20.0854C7.55983 19.4933 4.87736 16.8771 4.25867 14.4819C3.61346 11.9806 4.12167 9.413 5.65073 7.43761C7.17978 5.46221 9.48662 4.33089 11.9791 4.33089C12.7127 4.33089 13.4595 4.42812 14.1975 4.62698C16.9242 5.35173 19.041 7.51716 19.726 10.2748C20.2077 12.2192 20.0088 14.1593 19.147 15.8872C18.8996 16.3821 18.8377 16.9434 18.9791 17.4693Z" fill="#333333"/>
<path fill-rule="evenodd" clip-rule="evenodd" d="M3.36131 14.7154C1.82106 8.75419 6.27606 3.40513 11.9791 3.40513C12.7734 3.40513 13.5958 3.51127 14.434 3.72927C17.4797 4.53983 19.8667 6.99387 20.6224 10.0508C21.1808 12.3187 20.8774 14.4859 19.9734 16.2982C19.8321 16.5808 19.7863 16.9134 19.8731 17.2309C19.8732 17.2313 19.8733 17.2317 19.8734 17.232L20.8971 21.05L17.1829 20.0565C17.1823 20.0563 17.1817 20.0561 17.1812 20.056C17.0663 20.0243 16.9547 20.0126 16.8491 20.0126C16.6259 20.0126 16.4046 20.0739 16.2111 20.1793C14.9477 20.8597 13.5119 21.2544 11.9791 21.2544C11.265 21.2544 10.5289 21.1694 9.77877 20.9861L9.77824 20.986C8.41707 20.6556 6.98759 19.7799 5.80354 18.6254C4.61937 17.4708 3.71202 16.068 3.36131 14.7154ZM11.9791 4.68671C9.59681 4.68671 7.39381 5.76699 5.93207 7.65542C4.4729 9.54054 3.98439 11.9941 4.60314 14.3929C4.89146 15.5091 5.67247 16.7077 6.69419 17.7053C7.71552 18.7025 8.94061 19.4629 10.0787 19.7398C10.7117 19.8927 11.3508 19.9728 11.9791 19.9728C13.2544 19.9728 14.4691 19.665 15.5975 19.0564C15.9832 18.8484 16.4166 18.7354 16.8491 18.7354C17.0762 18.7354 17.2965 18.7664 17.5093 18.8221L17.5109 18.8225L19.086 19.2428L18.6356 17.5617C18.4707 16.9486 18.5439 16.2981 18.8289 15.7281C19.6511 14.0793 19.8429 12.2264 19.3807 10.3606C18.7266 7.72739 16.706 5.66191 14.1061 4.97086L14.105 4.97054C13.397 4.77978 12.6813 4.68671 11.9791 4.68671Z" fill="#333333"/>
<path fill-rule="evenodd" clip-rule="evenodd" d="M11.9791 2.6936C5.8209 2.6936 1.01322 8.47211 2.67243 14.8935C3.06418 16.4046 4.05714 17.9164 5.30681 19.1349C6.5565 20.3534 8.09431 21.3093 9.60989 21.6773C10.4154 21.8741 11.2082 21.9659 11.9791 21.9659C13.6365 21.9659 15.1879 21.5387 16.5494 20.8053L16.551 20.8044C16.649 20.7509 16.7543 20.7241 16.8491 20.7241C16.902 20.7241 16.9489 20.7299 16.9925 20.7421L20.9222 21.7932L20.9334 21.7955L20.9365 21.7961C20.9527 21.7995 21.009 21.8112 21.065 21.8112C21.4368 21.8112 21.7397 21.4609 21.6394 21.0708L20.5601 17.0457L20.5596 17.0437C20.5231 16.9108 20.5393 16.7574 20.61 16.6161C21.5885 14.6545 21.9125 12.314 21.3131 9.88008C20.4957 6.57366 17.9159 3.91924 14.616 3.04142L14.6141 3.04093C13.7203 2.80834 12.8373 2.6936 11.9791 2.6936ZM11.9791 3.40513C6.27606 3.40513 1.82106 8.75419 3.36131 14.7154C3.71202 16.068 4.61937 17.4708 5.80354 18.6254C6.98759 19.7799 8.41707 20.6556 9.77824 20.986L9.77877 20.9861C10.5289 21.1694 11.265 21.2544 11.9791 21.2544C13.5119 21.2544 14.9477 20.8597 16.2111 20.1793C16.4046 20.0739 16.6259 20.0126 16.8491 20.0126C16.9547 20.0126 17.0663 20.0243 17.1812 20.056L17.1829 20.0565L20.8971 21.05L19.8734 17.232L19.8731 17.2309C19.7863 16.9134 19.8321 16.5808 19.9734 16.2982C20.8774 14.4859 21.1808 12.3187 20.6224 10.0508C19.8667 6.99387 17.4797 4.53983 14.434 3.72927C13.5958 3.51127 12.7734 3.40513 11.9791 3.40513Z" fill="#333333"/>
</svg>
