<svg width="4" height="17" viewBox="0 0 4 17" fill="none" xmlns="http://www.w3.org/2000/svg">
<path d="M0.0721436 14.5007C0.0721436 13.6412 0.769316 12.9442 1.62878 12.9441C2.48836 12.9441 3.18542 13.6412 3.18542 14.5007C3.18529 15.3602 2.48827 16.0564 1.62878 16.0564C0.769397 16.0563 0.0722755 15.3601 0.0721436 14.5007ZM0.0721436 8.50073C0.0721436 7.64124 0.769316 6.94421 1.62878 6.94409C2.48836 6.94409 3.18542 7.64116 3.18542 8.50073C3.18529 9.36019 2.48827 10.0564 1.62878 10.0564C0.769397 10.0563 0.0722754 9.36012 0.0721436 8.50073ZM0.0721436 2.50073C0.0721436 1.64124 0.769316 0.944213 1.62878 0.944092C2.48836 0.944092 3.18542 1.64116 3.18542 2.50073C3.18529 3.36019 2.48827 4.0564 1.62878 4.0564C0.769397 4.05628 0.0722754 3.36012 0.0721436 2.50073Z" fill="black"/>
</svg>
