<svg width="24" height="24" viewBox="0 0 24 24" fill="none" xmlns="http://www.w3.org/2000/svg">
<path fill-rule="evenodd" clip-rule="evenodd" d="M7.93022 4.18092C6.96474 4.18092 6.01274 4.45312 5.1694 4.96932C2.5593 6.56918 1.64075 10.141 3.1568 12.9285C3.44047 13.4505 3.94851 14.0774 4.60084 14.7566C5.24954 15.432 6.02602 16.144 6.83187 16.8359C8.44342 18.2197 10.1583 19.5115 11.1715 20.2534L11.1718 20.2536C11.4145 20.4317 11.6997 20.525 11.9994 20.525C12.2984 20.525 12.5843 20.4321 12.8323 20.2528C13.8457 19.5108 15.56 18.2194 17.1712 16.8359C17.977 16.144 18.7535 15.432 19.4022 14.7566C20.0545 14.0774 20.5625 13.4506 20.8462 12.9286C22.3582 10.1409 21.4394 6.56899 18.8292 4.96921C17.986 4.45309 17.034 4.18092 16.0686 4.18092C14.6221 4.18092 13.2605 4.76464 12.2369 5.81007L11.9994 6.05259L11.7619 5.81007C10.7383 4.76464 9.37677 4.18092 7.93022 4.18092ZM4.82128 4.4157C5.76585 3.83755 6.8379 3.52942 7.93022 3.52942C9.45148 3.52942 10.8854 4.10298 11.9994 5.12727C13.1134 4.10298 14.5473 3.52942 16.0686 3.52942C17.1609 3.52942 18.233 3.83755 19.1775 4.4157C22.0997 6.20671 23.0956 10.1625 21.4283 13.2362C21.1026 13.8355 20.5463 14.5126 19.8815 15.2047C19.2131 15.9006 18.4197 16.6276 17.6047 17.3274C15.9746 18.7271 14.2443 20.0303 13.2251 20.7766L13.2236 20.7776C12.8646 21.0374 12.4423 21.1765 11.9994 21.1765C11.5569 21.1765 11.1337 21.0376 10.7777 20.7763C9.75839 20.03 8.0283 18.727 6.39834 17.3274C5.58337 16.6276 4.7899 15.9006 4.12151 15.2047C3.45679 14.5126 2.90059 13.8358 2.57493 13.2365M4.82128 4.4157C1.89911 6.2067 0.903196 10.1627 2.57493 13.2365L4.82128 4.4157ZM5.49188 5.46852C6.23383 5.01489 7.07388 4.773 7.93022 4.773C9.43239 4.773 10.8222 5.48995 11.7574 6.71877L11.7584 6.72002L11.9994 7.03991L12.2404 6.72002L12.2414 6.71877C13.1768 5.48981 14.5708 4.773 16.0686 4.773C16.9247 4.773 17.765 5.01475 18.5032 5.4688C20.8747 6.92109 21.6693 10.144 20.3064 12.648C20.0011 13.2091 19.4442 13.8642 18.7801 14.5366C18.111 15.2141 17.3134 15.9287 16.5074 16.6098C14.895 17.9725 13.2341 19.2139 12.4663 19.7773L12.4647 19.7785C12.1882 19.9788 11.8064 19.9788 11.5299 19.7785L11.5287 19.7777C10.7606 19.2161 9.09961 17.9756 7.48719 16.613C6.68113 15.9318 5.88351 15.2169 5.21437 14.5388C4.55039 13.8659 3.99359 13.2102 3.68821 12.648M5.84004 6.0221C3.78369 7.28524 3.06095 10.1186 4.26998 12.3398C4.52968 12.818 5.03242 13.4205 5.68752 14.0844C6.33757 14.7431 7.11888 15.4439 7.91678 16.1182C9.51168 17.466 11.1581 18.6957 11.9211 19.2536C11.9648 19.285 12.0293 19.2851 12.0731 19.2539C12.8364 18.6937 14.4829 17.4629 16.0778 16.1151C16.8758 15.4407 17.6571 14.7402 18.3072 14.0819C18.9623 13.4185 19.4649 12.817 19.7246 12.3398C20.9338 10.1183 20.2106 7.28098 18.1547 6.02218L18.1541 6.02182C17.5177 5.63036 16.7979 5.42449 16.0686 5.42449C14.792 5.42449 13.5887 6.03392 12.7699 7.10933C12.7698 7.10954 12.7696 7.10976 12.7694 7.10997L11.9994 8.1319L11.2294 7.10997C11.2292 7.10974 11.229 7.10951 11.2288 7.10928C10.4099 6.03376 9.21084 5.42449 7.93022 5.42449C7.20116 5.42449 6.48112 5.63022 5.84004 6.0221ZM5.49188 5.46852L5.49132 5.46886L5.49188 5.46852ZM5.49132 5.46886C3.12029 6.92507 2.32515 10.1437 3.68821 12.648L5.49132 5.46886Z" fill="#333333"/>
<path d="M11.9994 20.8235C11.6292 20.8235 11.2758 20.7078 10.9771 20.4888C8.94934 19.0054 4.10293 15.3155 2.88712 13.0801C1.29689 10.1588 2.25187 6.40697 5.01163 4.71699C5.90351 4.17156 6.91318 3.88232 7.93968 3.88232C9.47521 3.88232 10.9182 4.50212 11.9994 5.60537C13.0806 4.50212 14.5236 3.88232 16.0591 3.88232C17.0856 3.88232 18.0953 4.17156 18.9871 4.71699C21.7469 6.40697 22.7019 10.1588 21.1159 13.0801C19.9001 15.3155 15.0536 19.0054 13.0259 20.4888C12.723 20.7078 12.3696 20.8235 11.9994 20.8235ZM7.93968 5.12192C7.14877 5.12192 6.37048 5.34505 5.68054 5.76651C3.47189 7.12181 2.71463 10.1382 3.99776 12.4934C5.12522 14.5677 10.1988 18.3774 11.7259 19.493C11.8858 19.6087 12.1088 19.6087 12.2686 19.493C13.7958 18.3732 18.8694 14.5635 19.9968 12.4934C21.2799 10.1382 20.5227 7.11768 18.314 5.76651C17.6283 5.34505 16.85 5.12192 16.0591 5.12192C14.675 5.12192 13.3793 5.78304 12.5042 6.93174L11.9994 7.60112L11.4946 6.93174C10.6195 5.78304 9.32797 5.12192 7.93968 5.12192Z" fill="#333333"/>
</svg>
