<svg width="24" height="24" viewBox="0 0 24 24" fill="none" xmlns="http://www.w3.org/2000/svg">
<path d="M20.8943 3.70728H21.0496C21.1714 3.70728 21.2895 3.73309 21.3972 3.77954L21.2048 3.38696C21.5638 3.43314 21.8919 3.63899 22.0769 3.96411C22.2895 4.33041 22.2877 4.7816 22.0701 5.15063L21.8777 4.75806C21.858 4.8354 21.828 4.9112 21.7859 4.98267L14.4402 17.468L12.9304 20.6877V20.6887C12.6783 21.1148 12.1944 21.3453 11.7039 21.2668C11.2084 21.1881 10.8258 20.8202 10.7341 20.3264L9.0564 11.4104L2.16968 5.47192C2.06983 5.38382 1.98755 5.28323 1.92261 5.177L1.91968 5.1731L1.91675 5.16821C1.74441 4.86625 1.71689 4.50032 1.84253 4.16528L1.91968 3.99927C2.12712 3.6289 2.51676 3.38993 2.95777 3.38989L21.0496 3.3772L20.8943 3.70728ZM11.0681 11.384L12.2908 17.8762L18.6667 7.05103L11.0681 11.384ZM10.0906 9.67993L17.6736 5.35278H5.07788L10.0906 9.67993Z" fill="#333333"/>
</svg>
